<svg width="24" height="24" viewBox="0 0 24 24" fill="none" xmlns="http://www.w3.org/2000/svg">
<path d="M2 12C2 17.5228 6.47715 22 12 22C17.5228 22 22 17.5228 22 12C22 6.47715 17.5228 2 12 2C6.47715 2 2 6.47715 2 12Z" fill="#007FFF"/>
<path d="M11.8992 9.46085C12.562 9.46085 13.0992 8.90997 13.0992 8.23042C13.0992 7.55088 12.562 7 11.8992 7C11.2365 7 10.6992 7.55088 10.6992 8.23042C10.6992 8.90997 11.2365 9.46085 11.8992 9.46085Z" fill="white"/>
<path d="M10.3326 10.4761C10.2589 10.4761 10.1992 10.5358 10.1992 10.6094V11.5732C10.1992 11.6468 10.2589 11.7065 10.3326 11.7065H11.1674C11.2411 11.7065 11.3008 11.7662 11.3008 11.8398V15.7696H10.1333C10.0597 15.7696 10 15.8293 10 15.9029V16.8667C10 16.9403 10.0597 17 10.1333 17H13.8667C13.9403 17 14 16.9403 14 16.8667V15.9029C14 15.8293 13.9403 15.7696 13.8667 15.7696H13.1008V10.6094C13.1008 10.5358 13.0411 10.4761 12.9674 10.4761H10.3326Z" fill="white"/>
</svg>
