<svg width="44" height="44" viewBox="0 0 44 44" fill="none" xmlns="http://www.w3.org/2000/svg">
<path d="M42.62 22.31C42.62 33.5269 33.5269 42.62 22.31 42.62C11.0931 42.62 2 33.5269 2 22.31C2 11.0931 11.0931 2 22.31 2C33.5269 2 42.62 11.0931 42.62 22.31Z" fill="#FACBC2"/>
<path d="M42.62 22.31C42.62 33.5269 33.5269 42.62 22.31 42.62C11.0931 42.62 2 33.5269 2 22.31C2 11.0931 11.0931 2 22.31 2C33.5269 2 42.62 11.0931 42.62 22.31Z" fill="#FFEBE6"/>
<path d="M28 17L17 28M17 17L28 28" stroke="#DE3412" stroke-width="2.5" stroke-linecap="round" stroke-linejoin="round"/>
</svg>
