<svg width="514" height="512" viewBox="0 0 514 512" fill="none" xmlns="http://www.w3.org/2000/svg">
<path d="M513.908 261.225C513.908 399.701 399.27 512 257.908 512C116.546 512 1.9082 399.701 1.9082 261.225C1.9082 122.748 116.546 10.449 257.908 10.449C399.27 10.449 513.908 122.748 513.908 261.225Z" fill="white"/>
<path d="M377.984 243.718C337.303 216.623 285.218 227.627 257.813 268.395C235.005 302.41 200.537 306.662 187.26 306.662C143.686 306.662 113.984 276.649 105.133 245.635C105.133 245.635 104.962 245.052 104.877 244.718C104.792 244.385 104.707 244.051 104.622 243.718C101.133 230.712 100.281 224.626 100.281 210.87C100.281 136.755 177.984 54.1354 289.813 54.1354C401.643 54.1354 469.984 139.589 486.92 187.11C486.579 186.193 486.324 185.442 486.069 184.609C453.473 91.6517 363.601 24.8727 257.643 24.8727C124.537 24.8727 16.4517 130.669 16.4517 261.225C16.4517 377.943 102.324 477.736 221.558 477.736C316.537 477.736 380.452 425.547 409.728 353.599C425.813 314.248 414.409 267.978 377.984 243.718Z" fill="#003964"/>
<path d="M488.371 191.61C474.243 145.257 408.201 54.0507 289.818 54.0507C177.988 54.0507 100.286 136.67 100.286 210.785C100.286 224.541 101.137 230.711 104.626 243.633C103.179 237.964 102.413 232.295 102.413 226.792C102.413 149.509 181.307 96.069 262.498 96.069C372.371 96.069 461.477 183.273 461.477 290.904C461.477 375.274 411.945 448.305 339.945 483.404C432.796 450.556 499.009 363.435 499.009 261.141C499.009 236.963 495.69 215.621 488.456 191.61" fill="#ED1A3B"/>
</svg>
